PathFileType	4	(X/Y/Z)	Trial60_Left_Ankle_markers_cropped.trc
DataRate	CameraRate	NumFrames	NumMarkers	Units	OrigDataRate	OrigDataStartFrame	OrigNumFrames																																																																																													
200	200	6	27	m	200	25	101
Frame#	Time	R_ASIS			L_ASIS			Sacral			L_Thigh_Superior			L_Thigh_Inferior			L_Thigh_Lateral			L_Shank_Superior			L_Shank_Inferior			L_Shank_Lateral			L_Heel			L_Midfoot_Superior			L_Midfoot_Lateral			L_Toe			R_Thigh_Superior			R_Thigh_Inferior			R_Thigh_Lateral			R_Shank_Superior			R_Shank_Lateral			R_Shank_Inferior			R_Heel			R_Midfoot_Superior			R_Midfoot_Lateral			R_Toe
		X1	Y1	Z1	X2	Y2	Z2	X3	Y3	Z3	X4	Y4	Z4	X5	Y5	Z5	X6	Y6	Z6	X7	Y7	Z7	X8	Y8	Z8	X9	Y9	Z9	X10	Y10	Z10	X11	Y11	Z11	X12	Y12	Z12	X13	Y13	Z13	X14	Y14	Z14	X15	Y15	Z15	X16	Y16	Z16	X17	Y17	Z17	X18	Y18	Z18	X19	Y19	Z19	X20	Y20	Z20	X21	Y21	Z21	X22	Y22	Z22	X23	Y23	Z23

26	   0.125	   -0.59206940830954	    0.93163571029605	   -0.36703357203968	   -0.55259772146860	    0.95337562521553	   -0.64224968128788	   -0.79436841464543	    0.97551973085912	   -0.53834439533925	   -0.44913075891162	    0.81123440722189	   -0.60921030870647	   -0.34733550205757	    0.65307072165658	   -0.63619613737271	   -0.45562084856984	    0.70261701908855	   -0.71393109682658	   -0.29911438202088	    0.52019260841137	   -0.66823569014892	   -0.22107455920986	    0.30874326737342	   -0.69541467228405	   -0.32192484539407	    0.39082922344050	   -0.74991170124068	   -0.25315459566260	    0.10306066395045	   -0.69548184596142	   -0.13931291629485	    0.23675803738173	   -0.71402646701040	   -0.17955088684250	    0.15069307498574	   -0.76112215390332	   -0.00014491681665	    0.25482455752822	   -0.72580146142046	   -0.53998184866982	    0.73087092084614	   -0.41393250094383	   -0.54255783826608	    0.56652194671193	   -0.45697645822496	   -0.63188875815098	    0.60931003648114	   -0.38593729667304	   -0.57820022235222	    0.38719998497265	   -0.47462719602608	   -0.61999231341724	    0.19382686834937	   -0.50793841647770	   -0.66385396293093	    0.28122209731842	   -0.43503474879261	   -0.75896442030271	    0.03696011704830	   -0.56827957955885	   -0.58935725061345	    0.08872525946982	   -0.51699045800115	   -0.68210443566078	    0.02955464973788	   -0.48819314942066	   -0.47259920932663	    0.03225382133357	   -0.48174421851413
27	   0.130	   -0.59186303597293	    0.93168260217693	   -0.36762957573214	   -0.55254055258765	    0.95356542269298	   -0.64286538453302	   -0.79423255901609	    0.97559618589250	   -0.53878443427272	   -0.44919644436696	    0.81093622884601	   -0.60936051005132	   -0.34790048039257	    0.65243175949786	   -0.63555956396066	   -0.45562124836297	    0.70228404113522	   -0.71377548443702	   -0.29962131906558	    0.51963616745656	   -0.66729210488513	   -0.22137792388836	    0.30826137429540	   -0.69413263974424	   -0.32195544915530	    0.39032280474228	   -0.74929525385263	   -0.25422810425088	    0.10307027189622	   -0.69519087503533	   -0.13856526268770	    0.23562449172138	   -0.71103817084088	   -0.17806282232723	    0.14947905092324	   -0.75881873000514	    0.00118920162368	    0.25219556166251	   -0.71818304005139	   -0.53983208834857	    0.73089109975864	   -0.41448990029089	   -0.54244805420428	    0.56654779754274	   -0.45740198727646	   -0.63174935622000	    0.60938291283443	   -0.38635876284899	   -0.57814184485877	    0.38720533794083	   -0.47492656881232	   -0.61996370722928	    0.19383619456158	   -0.50803026824751	   -0.66379408361722	    0.28128448355425	   -0.43524761462868	   -0.75896409902419	    0.03695293859657	   -0.56827592251141	   -0.58935854708876	    0.08872163448791	   -0.51700633232801	   -0.68210623928655	    0.02955655957509	   -0.48819096905131	   -0.47259968093252	    0.03225023542943	   -0.48175480639538
28	   0.135	   -0.59170722744028	    0.93173733700061	   -0.36822695829387	   -0.55248122395646	    0.95369457083119	   -0.64347633171309	   -0.79412120057690	    0.97567982269004	   -0.53924580186558	   -0.44926442922226	    0.81065672068469	   -0.60949358075311	   -0.34844190519873	    0.65180961416482	   -0.63494388425297	   -0.45567308037848	    0.70194937956170	   -0.71360926880087	   -0.30017297220478	    0.51903836629001	   -0.66638109128100	   -0.22183134709999	    0.30770236274282	   -0.69285082494907	   -0.32214570926832	    0.38975047783559	   -0.74860300819201	   -0.25559629972678	    0.10308254507314	   -0.69482319175446	   -0.13797204221942	    0.23430069061999	   -0.70808071322483	   -0.17693131155887	    0.14812841115998	   -0.75646969349681	    0.00225633538197	    0.24912090951052	   -0.71072645492254	   -0.53974394058107	    0.73090771279789	   -0.41499596556627	   -0.54239261441160	    0.56656993075874	   -0.45777501705648	   -0.63168266426935	    0.60945889424172	   -0.38675080483279	   -0.57812034769217	    0.38721518569572	   -0.47518956983374	   -0.61995153266091	    0.19384973284850	   -0.50810693169440	   -0.66377551600215	    0.28133803240721	   -0.43544875939899	   -0.75896339544604	    0.03694413062460	   -0.56827304379194	   -0.58936139627713	    0.08871880823768	   -0.51701848427911	   -0.68210933799448	    0.02955768864599	   -0.48818864276260	   -0.47260036666458	    0.03224832952450	   -0.48176264682427
29	   0.140	   -0.59160096600015	    0.93179824973118	   -0.36881821266146	   -0.55242924253609	    0.95376239594526	   -0.64407305999986	   -0.79403969135063	    0.97577192822770	   -0.53972313035805	   -0.44933789392981	    0.81040315762484	   -0.60963030611052	   -0.34895406348913	    0.65122076621689	   -0.63439398471560	   -0.45576081999094	    0.70160858461907	   -0.71344593708012	   -0.30075514968373	    0.51842354655065	   -0.66554731036590	   -0.22240043337449	    0.30709657988054	   -0.69162616238660	   -0.32247622049781	    0.38913349477571	   -0.74787921169284	   -0.25717962821915	    0.10311471838265	   -0.69442924634204	   -0.13751650194051	    0.23284656824078	   -0.70523236574290	   -0.17613312036775	    0.14669907688063	   -0.75415302282045	    0.00306047158628	    0.24571380588892	   -0.70360014132869	   -0.53971637692419	    0.73092260264801	   -0.41545087152735	   -0.54239043952953	    0.56658942019112	   -0.45809784698909	   -0.63168520987846	    0.60953825147681	   -0.38711211900189	   -0.57813345027953	    0.38723183319485	   -0.47541513186351	   -0.61995500012360	    0.19386703633891	   -0.50816965278798	   -0.66379690541677	    0.28138544652676	   -0.43563369742414	   -0.75896261801059	    0.03693399711359	   -0.56827093007797	   -0.58936568668602	    0.08871662371629	   -0.51702687869762	   -0.68211353492126	    0.02955830565066	   -0.48818624522872	   -0.47260145777211	    0.03224905730343	   -0.48176653431680
30	   0.145	   -0.59154020192137	    0.93186296107208	   -0.36939619527891	   -0.55239554355474	    0.95377256897821	   -0.64464682595692	   -0.79399154884794	    0.97587336802002	   -0.54020994636532	   -0.44942125725244	    0.81017719906853	   -0.60979163233651	   -0.34943652355111	    0.65067673219801	   -0.63394944480144	   -0.45586908261259	    0.70125626357292	   -0.71330036311877	   -0.30135409680377	    0.51781690619840	   -0.66482990798741	   -0.22304446109173	    0.30647727666907	   -0.69051007819161	   -0.32292056291205	    0.38849514298655	   -0.74716836123878	   -0.25889715024998	    0.10319289533659	   -0.69406484458147	   -0.13716341393610	    0.23131833676361	   -0.70255661825576	   -0.17562001024676	    0.14524573813923	   -0.75193593584915	    0.00363154984616	    0.24206968297383	   -0.69691871932717	   -0.53974437611707	    0.73093782347996	   -0.41585929351971	   -0.54243712144367	    0.56660779286740	   -0.45837666376050	   -0.63174964184643	    0.60962118797585	   -0.38744460336386	   -0.57817811175901	    0.38725658443926	   -0.47560613214044	   -0.61997251683832	    0.19388778553114	   -0.50822083120623	   -0.66385450360026	    0.28142990285028	   -0.43579980502143	   -0.75896192303482	    0.03692268954419	   -0.56826947704292	   -0.58937124182946	    0.08871484770607	   -0.51703185995643	   -0.68211848599679	    0.02955859229109	   -0.48818389642097	   -0.47260312661188	    0.03225318472373	   -0.48176566256198
31	   0.150	   -0.59151998702181	    0.93192895714177	   -0.36995387549093	   -0.55238796438423	    0.95373321093129	   -0.64519210415166	   -0.79397830631037	    0.97598421581416	   -0.54069964601116	   -0.44951997629869	    0.80997495321402	   -0.60999741443522	   -0.34989331132525	    0.65018396552442	   -0.63364289924910	   -0.45598577758018	    0.70088758120041	   -0.71318965712440	   -0.30195582866246	    0.51724319315109	   -0.66426029193451	   -0.22371795398300	    0.30587869808653	   -0.68954548059717	   -0.32344503052791	    0.38785969162113	   -0.74651272621480	   -0.26067319037878	    0.10335297449410	   -0.69378916777006	   -0.13686041068489	    0.22976222008217	   -0.70009516728464	   -0.17532135728880	    0.14381434887897	   -0.74986843030653	    0.00402012064158	    0.23825418913452	   -0.69072364879757	   -0.53981939594546	    0.73095516842158	   -0.41622926829770	   -0.54252573489460	    0.56662656260979	   -0.45862117627528	   -0.63186559851335	    0.60970757023871	   -0.38775262049622	   -0.57825102501704	    0.38728966468158	   -0.47576956343181	   -0.62000176426489	    0.19391166278627	   -0.50826383529793	   -0.66394230900452	    0.28147410680811	   -0.43594691237411	   -0.75896131205459	    0.03691023680876	   -0.56826855992367	   -0.58937787390492	    0.08871319194531	   -0.51703414111736	   -0.68212362762524	    0.02955849157269	   -0.48818185451600	   -0.47260544695356	    0.03226090592645	   -0.48176003583213
